<svg width="44" height="44" viewBox="0 0 44 44" fill="none" xmlns="http://www.w3.org/2000/svg">
<rect width="44" height="44" rx="22" fill="white"/>
<path fill-rule="evenodd" clip-rule="evenodd" d="M16.0061 32.7861H27.994V15.1695H27.9376V13.7316C27.9376 11.6759 26.2659 10 24.2092 10H19.793C17.7363 10 16.0625 11.6759 16.0625 13.7316V15.1695H16.0061V32.7861ZM18.3906 20.4393C19.2911 19.8643 20.4045 20.002 20.8772 20.744C21.111 21.1134 21.1423 21.5621 21.0014 21.9899C21.3145 21.8824 21.6505 21.824 22.0001 21.824C22.3496 21.824 22.6856 21.8824 22.9987 21.9899C22.8599 21.5621 22.8902 21.1134 23.125 20.744C23.5956 20.002 24.709 19.8643 25.6096 20.4393C26.5122 21.0122 26.8576 22.0776 26.3891 22.8174C26.0468 23.3559 25.3685 23.574 24.6777 23.4373C24.9 23.8589 25.0273 24.3378 25.0273 24.8502C25.0273 26.5229 23.6718 27.8774 22.0001 27.8774C20.3283 27.8774 18.9728 26.5229 18.9728 24.8502C18.9728 24.3378 19.1001 23.8589 19.3224 23.4373C18.6306 23.574 17.9533 23.3559 17.611 22.8174C17.1425 22.0776 17.49 21.0122 18.3906 20.4393ZM18.5763 13.7316C18.5763 13.0606 19.1231 12.5149 19.793 12.5149H24.2092C24.8791 12.5149 25.4259 13.0606 25.4259 13.7316V15.1695H18.5763V13.7316Z" fill="url(#paint0_linear_5256_93615)"/>
<path d="M14.748 15.1698H11.7437C10.7847 15.1698 10 15.9576 10 16.9135V31.0395C10 31.9984 10.7847 32.7863 11.7437 32.7863H14.748V15.1698Z" fill="url(#paint1_linear_5256_93615)"/>
<path d="M29.252 15.1698H32.2563C33.2174 15.1698 34 15.9576 34 16.9135V31.0395C34 31.9984 33.2174 32.7863 32.2563 32.7863H29.252V15.1698Z" fill="url(#paint2_linear_5256_93615)"/>
<defs>
<linearGradient id="paint0_linear_5256_93615" x1="10" y1="32.7863" x2="38.0548" y2="25.399" gradientUnits="userSpaceOnUse">
<stop stop-color="#1A1152"/>
<stop offset="1" stop-color="#413493"/>
</linearGradient>
<linearGradient id="paint1_linear_5256_93615" x1="10" y1="32.7863" x2="38.0548" y2="25.399" gradientUnits="userSpaceOnUse">
<stop stop-color="#1A1152"/>
<stop offset="1" stop-color="#413493"/>
</linearGradient>
<linearGradient id="paint2_linear_5256_93615" x1="10" y1="32.7863" x2="38.0548" y2="25.399" gradientUnits="userSpaceOnUse">
<stop stop-color="#1A1152"/>
<stop offset="1" stop-color="#413493"/>
</linearGradient>
</defs>
</svg>
