<svg width="32" height="32" viewBox="0 0 32 32" fill="none" xmlns="http://www.w3.org/2000/svg">
<path fill-rule="evenodd" clip-rule="evenodd" d="M19.3696 6.13704C20.8717 5.71204 22.6937 6.27405 23.9357 7.57907C25.6938 9.43211 25.8108 12.3212 24.1977 14.0212C23.5297 14.7232 22.5877 15.1222 21.5357 15.1552V19.8813H17.5586L18.0876 17.2253C18.1526 16.8933 17.9376 16.5723 17.6076 16.5073C17.2756 16.4433 16.9556 16.6533 16.8886 16.9853L16.3106 19.8813H13.9825L13.4065 16.9853C13.3415 16.6533 13.0215 16.4433 12.6875 16.5073C12.3595 16.5723 12.1425 16.8933 12.2085 17.2253L12.7365 19.8813H8.63842V15.1162C7.7494 15.0102 6.93738 14.6192 6.35937 14.0112C4.81234 12.3842 5.04034 9.49311 6.86938 7.57007C8.07441 6.30205 9.83044 5.72904 11.3165 6.10004C12.2225 4.79202 13.7125 4 15.3316 4C16.9706 4 18.4666 4.80602 19.3696 6.13704ZM8.66466 21.1076C8.66523 21.1065 8.66592 21.1052 8.66592 21.1029H21.5492C21.5492 21.1069 21.5512 21.1079 21.5512 21.1099V27.277C21.5512 27.677 21.2272 28 20.8262 28H9.39093C8.98792 28 8.66392 27.677 8.66392 27.277V21.1099C8.66392 21.109 8.66426 21.1084 8.66466 21.1076Z" fill="#253050"/>
</svg>
