<svg width="32" height="32" viewBox="0 0 32 32" fill="none" xmlns="http://www.w3.org/2000/svg">
<path fill-rule="evenodd" clip-rule="evenodd" d="M18.9265 11.265C18.7195 9.82823 17.4939 8.71676 16.0006 8.71676C14.5073 8.71676 13.2817 9.82823 13.0747 11.265C14.0102 11.0357 14.9873 10.9045 16.0006 10.9045C17.0129 10.9045 17.991 11.0357 18.9265 11.265ZM21.01 11.8884C21.008 11.9182 21.006 11.9479 21.0043 11.9776C24.8646 13.7194 27.5334 17.4293 27.5334 21.9018H4.46995C4.46995 17.4293 7.13875 13.7194 10.9969 11.9776C10.9952 11.9478 10.9932 11.9181 10.9912 11.8884C10.9866 11.821 10.9819 11.7534 10.9819 11.6853C10.9819 8.91836 13.2326 6.66663 16.0006 6.66663C18.7686 6.66663 21.0193 8.91836 21.0193 11.6853C21.0193 11.7534 21.0147 11.821 21.01 11.8884ZM2.66675 24.3485C2.66675 23.6989 3.19581 23.1709 3.84648 23.1709H28.1547C28.8054 23.1709 29.3334 23.6989 29.3334 24.3485C29.3334 25.0003 28.8054 25.5272 28.1547 25.5272H3.84648C3.19581 25.5272 2.66675 25.0003 2.66675 24.3485Z" fill="#253050"/>
</svg>
