<svg width="32" height="32" viewBox="0 0 32 32" fill="none" xmlns="http://www.w3.org/2000/svg">
<path fill-rule="evenodd" clip-rule="evenodd" d="M25.2937 15.5536H27.5913L28.1726 11.0972H26.7913L25.2937 15.5536ZM19.2481 11.0972L20.7808 24.8098H22.0021L21.0432 15.5536H23.6191L25.1209 11.0972H19.2481ZM28.7933 10.0189C28.9491 10.0189 29.0973 10.085 29.1997 10.2013C29.3021 10.3175 29.3491 10.4733 29.3288 10.6279L27.3971 25.421C27.3641 25.6887 27.1326 25.8892 26.8638 25.8892H20.2977C20.0225 25.8892 19.7931 25.6834 19.7622 25.4103L18.1079 10.6173C18.0919 10.4647 18.1399 10.3133 18.2433 10.1981C18.3436 10.084 18.4919 10.0189 18.6433 10.0189H25.4825L26.4265 7.20725C26.5684 6.79234 27.0121 6.56728 27.4313 6.70914C27.8451 6.8478 28.068 7.29685 27.9283 7.7107L27.1539 10.0189H28.7933ZM17.9062 13.6026C16.6838 13.2581 15.7814 12.1456 15.7814 10.8145C15.7814 9.21134 17.0849 7.90579 18.6891 7.90579C19.8122 7.90579 20.7765 8.55217 21.2618 9.48547H22.5919C22.034 7.85672 20.5055 6.6749 18.6891 6.6749C16.4076 6.6749 14.5506 8.5319 14.5506 10.8145C14.5506 12.8784 16.0716 14.5807 18.0502 14.8911L17.9062 13.6026ZM7.81064 18.953L5.48326 16.6277C5.34246 16.4848 5.34246 16.2544 5.48326 16.1115C5.62619 15.9685 5.85765 15.9685 6.00057 16.1115L8.82714 18.938C9.0266 18.6575 9.27939 18.1999 9.28045 17.6111C9.28152 17.0138 9.0234 16.4507 8.51248 15.9397C6.98827 14.4166 4.22997 14.3718 4.11264 14.3707C3.97718 14.3654 3.92065 14.4081 3.85132 14.4774C3.78199 14.5478 3.74359 14.6417 3.74359 14.7398C3.74466 14.8507 3.78945 17.4021 5.1462 18.953H7.81064ZM16.275 18.953C16.5139 18.6394 16.66 18.2522 16.66 17.8287C16.66 16.7962 15.8227 15.9579 14.7892 15.9579C13.8004 15.9579 12.9983 16.7301 12.9322 17.7029C12.5898 17.3168 12.0949 17.0682 11.5381 17.0682C10.5045 17.0682 9.66721 17.9055 9.66721 18.938L9.6675 18.9417L9.66837 18.9463C9.66887 18.9487 9.66935 18.9509 9.66935 18.953H16.275ZM3.01508 19.7092H17.501C17.7249 19.7092 17.8956 19.9279 17.838 20.1433C17.2887 22.1891 16.0706 23.5469 14.4803 24.3597C14.7341 24.4973 14.9144 24.7575 14.9144 25.0669C14.9144 25.5181 14.5485 25.8839 14.0984 25.8839H6.41656C5.96751 25.8839 5.60165 25.5181 5.60165 25.0669C5.60165 24.7575 5.78191 24.4973 6.03577 24.3586C4.44543 23.5469 3.22734 22.1891 2.67803 20.1433C2.62043 19.9279 2.79109 19.7092 3.01508 19.7092Z" fill="#253050"/>
</svg>
