<?xml version="1.0" encoding="UTF-8"?>
<svg width="32" height="32" viewBox="0 0 50 50" version="1.1" xmlns="http://www.w3.org/2000/svg" xmlns:xlink="http://www.w3.org/1999/xlink">
    <title>50x50</title>
    <g id="50x50" stroke="none" stroke-width="1" fill="none" fill-rule="evenodd">
        <g id="icon_e23a_kingdom-club-bellman" transform="translate(5.000000, 0.000000)" fill="#253B56">
            <path d="M10.5420358,40.8419689 C11.5300392,40.8419689 12.3340419,41.6459716 12.3340419,42.639975 C12.3340419,43.6279783 11.5300392,44.4379811 10.5420358,44.4379811 L6.54802225,44.4379811 C5.55601888,44.4379811 4.75201615,43.6279783 4.75201615,42.639975 C4.75201615,41.6459716 5.55601888,40.8419689 6.54802225,40.8419689 L10.5420358,40.8419689 Z M30.9181051,31.6839378 C29.5381004,33.1019426 19.5020663,47.9659931 19.5020663,47.9659931 C19.5020663,47.9659931 9.52003235,33.2059429 8.08802749,31.751938 C3.18801083,34.2499465 -1.77636288e-15,38.8939623 -1.77636288e-15,46.4439879 L-1.77636288e-15,47.7819925 C-1.77636288e-15,49.0019966 1.08400368,50 2.4140082,50 L36.7301248,50 C38.0621294,50 39.144133,49.0019966 39.144133,47.7819925 L39.144133,46.4439879 C39.144133,38.825962 35.894122,34.1679462 30.9181051,31.6839378 L30.9181051,31.6839378 Z" id="Fill-1"></path>
            <path d="M9.46003215,13.234275 C7.95202703,15.290282 7.05002396,17.8202906 7.05002396,20.5643 C7.05002396,27.4223233 12.6100429,32.9843422 19.4740662,32.9843422 C26.3320895,32.9843422 31.8901084,27.4223233 31.8901084,20.5643 C31.8901084,19.7342971 31.8041081,18.9282944 31.6501076,18.1442917 L9.46003215,13.234275 Z" id="Fill-3"></path>
            <path d="M34.3897169,4.83204649 L12.6336429,0.0220301463 C12.3796421,-0.0319700372 12.1136412,0.0140301191 11.8956404,0.152030588 C11.6776397,0.292031064 11.5216392,0.514031818 11.465639,0.766032675 L9.47163219,9.79406336 C9.3556318,10.3220652 9.68763292,10.8460669 10.2156347,10.9620673 L31.9717087,15.7780837 C32.0417089,15.7900837 32.1117091,15.7980838 32.1817094,15.7980838 C32.36771,15.7980838 32.5517106,15.7460836 32.7097112,15.6440832 C32.9297119,15.5060828 33.0837124,15.286082 33.1397126,15.0320812 L35.1337194,6.00005046 C35.2497198,5.47204867 34.9177187,4.95004689 34.3897169,4.83204649" id="Fill-5"></path>
            <path d="M24.3212827,33.8007449 C24.1632821,33.7007446 23.9652814,33.6947446 23.7992809,33.7787449 L19.7452671,35.8467519 C19.6732669,35.884752 19.6192667,35.9467522 19.5732665,36.0087524 C19.5252664,35.9467522 19.4712662,35.884752 19.3972659,35.8467519 L15.3432521,33.7787449 C15.1772516,33.6947446 14.9772509,33.7007446 14.8212504,33.8007449 C14.6632498,33.8987453 14.5672495,34.0687459 14.5672495,34.2567465 L14.5672495,38.3927606 C14.5672495,38.5787612 14.6632498,38.7507618 14.8212504,38.8467621 C14.9072507,38.9007623 15.003251,38.9267624 15.1012513,38.9267624 C15.1832516,38.9267624 15.2672519,38.9067623 15.3432521,38.8667622 L19.3972659,36.8007551 C19.4712662,36.762755 19.5252664,36.7007548 19.5732665,36.6387546 C19.6192667,36.7007548 19.6732669,36.762755 19.7452671,36.8007551 L23.7992809,38.8667622 C23.8752811,38.9067623 23.9592814,38.9267624 24.0412817,38.9267624 C24.139282,38.9267624 24.2352824,38.9007623 24.3212827,38.8467621 C24.4792832,38.7507618 24.5752835,38.5787612 24.5752835,38.3927606 L24.5752835,34.2567465 C24.5752835,34.0687459 24.4792832,33.8987453 24.3212827,33.8007449" id="Fill-7"></path>
        </g>
    </g>
</svg>