<svg width="32" height="32" viewBox="0 0 32 32" fill="none" xmlns="http://www.w3.org/2000/svg">
<path fill-rule="evenodd" clip-rule="evenodd" d="M25.0063 18.3613C24.7836 18.3421 24.3842 18.3747 24.0588 18.4496C23.982 14.7814 21.151 11.8266 17.6239 11.7142C18.4438 10.8502 18.8825 9.69824 18.6934 8.51361C18.3545 6.39298 16.1849 5.00098 13.8425 5.40226C11.5011 5.8045 9.87772 7.85025 10.2156 9.97088C10.4739 11.5808 11.792 12.7664 13.4355 13.0688C12.6761 13.64 12.0454 14.3715 11.5817 15.2125C11.0758 13.7254 9.92764 12.609 8.46749 12.4285C6.3123 12.1635 4.32702 14.0134 4.03615 16.5641C3.74431 19.111 5.2515 21.3939 7.40765 21.6588C8.77085 21.8278 10.063 21.1452 10.903 19.9788C11.5193 23.1248 14.2006 25.4931 17.4175 25.4931C19.2108 25.4931 20.8351 24.7539 22.0313 23.5568C23.5961 22.7974 25.5372 22.5699 26.2332 20.5308C27.0309 20.5059 27.6991 19.8329 27.8805 19.2425C28.2338 18.0925 27.7509 17.2246 27.0953 16.951C25.4585 16.2627 25.0217 18.319 25.0063 18.3613Z" fill="#253050"/>
</svg>
