<?xml version="1.0" encoding="UTF-8"?>
<svg width="32" height="32" viewBox="0 0 50 50" version="1.1" xmlns="http://www.w3.org/2000/svg" xmlns:xlink="http://www.w3.org/1999/xlink">
    <title>50x50</title>
    <g id="50x50" stroke="none" stroke-width="1" fill="none" fill-rule="evenodd">
        <g id="icon_e0c8_vacation-packages" transform="translate(-1.000000, 0.000000)" fill="#253B56">
            <path d="M18.4113994,22.906916 C20.3874758,21.6452496 22.8306665,21.9475 23.8679349,23.5755305 C24.3808447,24.3861111 24.4495379,25.3707147 24.1404182,26.3095227 C24.8273509,26.0736758 25.5646587,25.9454484 26.3317335,25.9454484 C27.0988084,25.9454484 27.8361162,26.0736758 28.5230489,26.3095227 C28.2185087,25.3707147 28.2849122,24.3861111 28.8001117,23.5755305 C29.8328006,21.9475 32.2759912,21.6452496 34.2520677,22.906916 C36.2327236,24.1640029 36.9906394,26.5018639 35.9625301,28.1253148 C35.2114837,29.3068391 33.7231295,29.7854022 32.207298,29.4854416 C32.6950202,30.410511 32.9743728,31.461518 32.9743728,32.5857979 C32.9743728,36.2563083 29.9999542,39.2284372 26.3317335,39.2284372 C22.6635129,39.2284372 19.6890943,36.2563083 19.6890943,32.5857979 C19.6890943,31.461518 19.9684469,30.410511 20.4561691,29.4854416 C18.9380478,29.7854022 17.4519834,29.3068391 16.700937,28.1253148 C15.6728277,26.5018639 16.435323,24.1640029 18.4113994,22.906916 L18.4113994,22.906916 Z M18.8189795,8.18823788 C18.8189795,6.71591211 20.018822,5.51835942 21.488858,5.51835942 L31.1791887,5.51835942 C32.6492247,5.51835942 33.8490671,6.71591211 33.8490671,8.18823788 L33.8490671,11.3435488 L18.8189795,11.3435488 L18.8189795,8.18823788 Z M13.179262,49.999542 L39.4842051,49.999542 L39.4842051,11.3435488 L39.3605572,11.3435488 L39.3605572,8.18823788 C39.3605572,3.67737976 35.6923366,0 31.1791887,0 L21.488858,0 C16.9757101,0 13.3029098,3.67737976 13.3029098,8.18823788 L13.3029098,11.3435488 L13.179262,11.3435488 L13.179262,49.999542 Z" id="Fill-1"></path>
            <path d="M10.4184794,11.3440067 L3.82621518,11.3440067 C1.72191132,11.3440067 -2.03372936e-15,13.0727874 -2.03372936e-15,15.1702219 L-2.03372936e-15,46.1669155 C-2.03372936e-15,48.2712194 1.72191132,50 3.82621518,50 L10.4184794,50 L10.4184794,11.3440067 Z" id="Fill-3"></path>
            <path d="M48.8370229,11.3440067 L42.2447587,11.3440067 L42.2447587,50 L48.8370229,50 C50.9459063,50 52.6632381,48.2712194 52.6632381,46.1669155 L52.6632381,15.1702219 C52.6632381,13.0727874 50.9459063,11.3440067 48.8370229,11.3440067" id="Fill-5"></path>
        </g>
    </g>
</svg>