<svg width="32" height="32" viewBox="0 0 32 32" fill="none" xmlns="http://www.w3.org/2000/svg">
<path d="M16.0334 22H16.5208C16.5789 21.9899 16.6372 21.9808 16.6955 21.9716C16.8219 21.9518 16.9482 21.932 17.0724 21.9028C18.5036 21.5666 19.574 20.2826 19.6746 18.7908C19.719 18.1341 19.5928 17.5152 19.2959 16.9313C19.2877 16.9151 19.2801 16.8986 19.2726 16.8825L19.2617 16.859C19.3151 16.8673 19.3681 16.8768 19.4208 16.8863C19.5352 16.9068 19.6483 16.9271 19.7624 16.9351C20.2349 16.9682 20.6683 16.8586 21.0307 16.5313C21.3061 16.2825 21.4575 15.9657 21.5069 15.5963C21.51 15.5731 21.5146 15.5502 21.5193 15.5273L21.5257 15.4955V15.2476C21.5176 15.2062 21.5103 15.1647 21.503 15.1231C21.4873 15.0337 21.4716 14.9444 21.4488 14.857C21.1729 13.8001 20.0909 12.9674 19.0189 13.002C18.3862 13.0225 17.8831 13.2895 17.6012 13.8923C17.4016 14.319 17.4228 14.7609 17.5644 15.2021L17.5918 15.2861L17.6133 15.3514C17.197 15.1773 16.7794 15.0864 16.3456 15.0779C15.9136 15.0694 15.4948 15.1437 15.075 15.2999C15.0832 15.2712 15.0915 15.2439 15.0994 15.2175C15.1154 15.1646 15.1302 15.1152 15.1425 15.0651C15.2755 14.5208 15.2243 14.0079 14.8612 13.5636C14.5084 13.1319 14.0317 12.9783 13.4982 13.0024C12.479 13.0486 11.5152 13.8249 11.2287 14.8205C11.2013 14.9156 11.1838 15.0137 11.1663 15.1119C11.1582 15.1572 11.1501 15.2026 11.141 15.2476V15.4955C11.1476 15.5296 11.1534 15.5638 11.1593 15.5981C11.172 15.6727 11.1848 15.7474 11.2046 15.82C11.3694 16.4265 11.881 16.8556 12.5112 16.9266C12.7432 16.9528 12.972 16.9433 13.2001 16.8956C13.2159 16.8923 13.232 16.8909 13.2514 16.8891C13.2611 16.8883 13.2717 16.8873 13.2833 16.886L13.2422 16.9751C13.2143 17.0354 13.1876 17.0928 13.1623 17.1509C12.2752 19.1948 13.5306 21.5733 15.6934 21.946C15.771 21.9594 15.849 21.9714 15.9269 21.9834L16.0334 22Z" fill="#253050"/>
<path fill-rule="evenodd" clip-rule="evenodd" d="M11.3333 4C10.7811 4 10.3333 4.44772 10.3333 5V6H9.33334C7.1242 6 5.33334 7.87614 5.33334 10.1905V23.8095C5.33334 26.1239 7.1242 28 9.33334 28H23.3333C25.5425 28 27.3333 26.1239 27.3333 23.8095V10.1905C27.3333 7.87614 25.5425 6 23.3333 6H22.3333V5C22.3333 4.44772 21.8856 4 21.3333 4C20.7811 4 20.3333 4.44772 20.3333 5V6H12.3333V5C12.3333 4.44772 11.8856 4 11.3333 4ZM10.3333 8V9C10.3333 9.55229 10.7811 10 11.3333 10C11.8856 10 12.3333 9.55229 12.3333 9V8H20.3333V9C20.3333 9.55229 20.7811 10 21.3333 10C21.8856 10 22.3333 9.55229 22.3333 9V8H23.3333C24.4379 8 25.3333 8.9481 25.3333 10.1176V23.8824C25.3333 25.0519 24.4379 26 23.3333 26H9.33334C8.22877 26 7.33334 25.0519 7.33334 23.8824V10.1176C7.33334 8.9481 8.22877 8 9.33334 8H10.3333Z" fill="#253050"/>
</svg>
