<svg width="32" height="32" viewBox="0 0 32 32" fill="none" xmlns="http://www.w3.org/2000/svg">
<path d="M24.3912 4C24.2795 4 24.1783 4.08556 24.1595 4.19513L23.4771 8.03925L21.0646 8.73629C20.9571 8.75507 20.8747 8.85524 20.8747 8.96794C20.8747 9.08376 20.9571 9.17872 21.0646 9.20167L23.4771 9.88306L24.1595 13.8639C24.1783 13.9766 24.2795 14.0621 24.3912 14.0621C24.5039 14.0621 24.603 13.9766 24.6249 13.8639L25.324 9.88306L27.7783 9.20167C27.8878 9.17872 27.9724 9.08376 27.9724 8.96794C27.9724 8.85524 27.8878 8.75507 27.7783 8.73629L25.324 8.03925L24.6249 4.19513C24.603 4.08556 24.5039 4 24.3912 4Z" fill="#253050"/>
<path d="M7.53933 20.7566L7.11985 22.903L5.13831 23.2536C5.02562 23.2713 4.94214 23.3653 4.94214 23.4811C4.94214 23.6 5.02562 23.695 5.13831 23.7138L7.11985 24.1092L7.53933 27.6215C7.55707 27.7384 7.65098 27.8188 7.76785 27.8188C7.8868 27.8188 7.98071 27.7353 7.99532 27.6215L8.34384 24.1092L9.92156 23.7138C10.0322 23.695 10.1136 23.6 10.1136 23.4811C10.1136 23.3653 10.0322 23.2713 9.92156 23.2536L8.34384 22.903L7.99532 20.7566C7.98071 20.6429 7.8868 20.5615 7.76785 20.5615C7.65098 20.5615 7.55707 20.6429 7.53933 20.7566Z" fill="#253050"/>
<path d="M14.0696 24.7751C14.6842 24.7751 15.1788 24.2805 15.1788 23.6648C15.1788 23.0523 14.6842 22.5567 14.0696 22.5567C13.4603 22.5567 12.9604 23.0523 12.9604 23.6648C12.9604 24.2805 13.4603 24.7751 14.0696 24.7751Z" fill="#253050"/>
<path d="M5.37654 6.0717C5.18141 5.49466 5.49445 5.18058 6.07149 5.37675L9.09858 6.40039C9.67979 6.59865 10.5521 6.46091 11.0426 6.09465L13.6043 4.18407C14.0947 3.81885 14.4881 4.0192 14.4797 4.62963L14.4401 7.82576C14.4328 8.43723 14.8345 9.22713 15.3333 9.57774L17.943 11.4257C18.4418 11.7794 18.3729 12.2135 17.7896 12.3972L14.7375 13.3467C14.1542 13.5283 13.5281 14.1533 13.3444 14.7408L12.398 17.7888C12.2165 18.3752 11.7782 18.442 11.4234 17.9442L9.58066 15.3356C9.22484 14.8337 8.43702 14.433 7.82555 14.4413L4.63046 14.482C4.0169 14.4893 3.81656 14.0939 4.18386 13.6055L6.09444 11.0438C6.4607 10.5523 6.59948 9.67791 6.40122 9.09879L5.37654 6.0717Z" fill="#253050"/>
<path d="M25.4805 27.5698C25.7695 27.8567 26.1462 27.9997 26.525 27.9997C26.9006 27.9997 27.2794 27.8567 27.5674 27.5698C28.1423 26.9917 28.1423 26.0578 27.5674 25.4829L17.3456 15.2579C16.7686 14.683 15.8336 14.683 15.2597 15.2579C14.6837 15.835 14.6837 16.7678 15.2597 17.3428L25.4805 27.5698Z" fill="#253050"/>
</svg>
