<svg width="32" height="32" xmlns="http://www.w3.org/2000/svg" viewBox="0 0 25 25"><defs><style>.d{fill:none;}.e{fill:#253b56;}</style></defs><g id="a"/><g id="b"><g id="c"><g><rect class="d" x="0" width="32" height="32"/><rect class="d" x="0" width="25" height="25"/><g><rect class="d" x="0" width="25" height="25"/><path class="e" d="M22.64,3.22c-2.38-1.76-5.54-1.54-7.06,.51-.8,1.08-.97,2.45-.62,3.76-.78-.25-1.6-.43-2.46-.43s-1.68,.17-2.46,.43c.35-1.31,.18-2.68-.62-3.76-1.52-2.05-4.69-2.27-7.06-.51C-.02,4.99-.71,8.09,.81,10.13c1,1.36,2.72,1.89,4.46,1.61-.45,1-.72,2.1-.72,3.28,0,4.38,3.56,7.95,7.95,7.95s7.95-3.56,7.95-7.95c0-1.18-.27-2.27-.72-3.28,1.74,.29,3.46-.25,4.47-1.61,1.52-2.04,.83-5.14-1.55-6.91ZM11.93,13.82s0,.05,0,.07c-.04,.36-.34,.64-.71,.64h-.17v4.56c0,.45-.37,.82-.82,.82s-.82-.36-.82-.82v-4.56h-.14c-.33,0-.6-.22-.68-.52-.03-.06-.05-.12-.05-.19v-3.36c0-.2,.16-.36,.36-.36s.35,.16,.35,.36v2.42s.02,0,.03,0h.6v-2.41c0-.2,.16-.36,.36-.36s.36,.16,.36,.36v2.41h.63v-2.41c0-.2,.16-.36,.36-.36s.36,.16,.36,.36v3.36Zm4.54,5.12c0,.54-.51,.98-1.05,.98s-1.05-.44-1.05-.98v-3.75c-.47-.22-.7-.67-.7-1.19v-2.76c0-.73,.31-1.33,1.5-1.33,.85,0,1.3,.54,1.3,1.33v7.69Z"/></g></g></g></g></svg>