<svg width="44" height="44" viewBox="0 0 44 44" fill="none" xmlns="http://www.w3.org/2000/svg">
<rect width="44" height="44" rx="22" fill="white"/>
<path d="M30.1401 19.5406C29.8963 18.6296 29.3577 18.1755 28.6819 18.0382C28.4303 18.4885 28.006 18.8417 27.4684 18.9857C26.9356 19.1288 26.3942 19.0385 25.9535 18.7784C25.4466 19.2353 25.2143 19.8929 25.4562 20.7954L25.4994 20.9566C25.5388 21.1026 25.7001 21.1861 25.8594 21.1438L29.9644 20.0427C30.1238 20.0005 30.2217 19.8469 30.1823 19.7009L30.1401 19.5406Z" fill="url(#paint0_linear_5256_93619)"/>
<path d="M28.4424 16.6774C28.6632 17.4992 28.1755 18.3411 27.3547 18.5609C26.5339 18.7808 25.6901 18.296 25.4702 17.4732C25.2504 16.6534 25.7371 15.8096 26.5579 15.5897C27.3787 15.3699 28.2226 15.8566 28.4424 16.6774Z" fill="url(#paint1_linear_5256_93619)"/>
<path fill-rule="evenodd" clip-rule="evenodd" d="M33.952 24.8384L30.9731 13.7187C30.7696 12.9641 29.9833 12.5119 29.2278 12.7154L11.051 17.5856C10.3013 17.7862 9.84622 18.5715 10.0478 19.3241L13.0267 30.4458C13.2293 31.2004 14.0175 31.6487 14.7682 31.451L32.9411 26.578C33.6966 26.3773 34.1546 25.592 33.952 24.8384ZM31.0499 20.5193L25.1958 22.088C25.0335 22.1312 24.8675 22.0342 24.8243 21.873L23.2556 16.0198C23.2124 15.8576 23.3084 15.6915 23.4697 15.6492L29.3238 14.0796C29.4861 14.0355 29.6521 14.1324 29.6953 14.2937L31.264 20.1478C31.3072 20.3091 31.2112 20.4752 31.0499 20.5193ZM20.5657 28.5556L20.3881 27.9853C20.2604 27.5312 19.9301 26.9994 19.0181 26.8487C18.3202 27.4516 18.2847 27.9517 18.6101 29.1095C17.3669 29.4599 16.3426 29.7508 16.3407 29.7546C16.3436 29.6471 16.3426 29.5165 16.3301 29.4033C16.1919 28.1207 15.8472 26.962 15.8472 26.962C15.5419 26.961 15.5583 26.888 15.5583 26.888C15.9826 25.6103 15.9604 25.0123 15.9508 24.7534C15.9466 24.6386 15.9448 24.5904 15.9855 24.5792C16.0255 24.5676 16.049 24.6094 16.1048 24.7091C16.2056 24.8888 16.4117 25.2566 17.0108 25.8378L16.6085 24.4074C16.4204 24.4045 16.4319 24.3661 16.4319 24.3661C16.5788 23.913 16.5164 23.2832 16.4693 23.0058C16.446 22.8682 16.4215 22.7485 16.4013 22.6497C16.3615 22.4556 16.3383 22.3423 16.3733 22.3328C16.41 22.3225 16.4502 22.4342 16.5189 22.6249C16.5525 22.7183 16.5929 22.8306 16.6431 22.9568C16.7477 23.2189 17.0232 23.7872 17.3842 24.0992C17.3842 24.0992 17.414 24.1251 17.2556 24.225L17.4226 24.8183L17.5964 24.4669L16.837 21.7395C16.5327 21.7395 16.5269 21.6656 16.5269 21.6656C16.8303 20.721 16.6661 19.3491 16.38 18.2124C16.2879 18.2105 16.2043 18.151 16.1784 18.0588C16.1525 17.9676 16.1919 17.8736 16.2687 17.8236C16.2587 17.7488 16.237 17.6503 16.2164 17.5568C16.1833 17.4066 16.153 17.2691 16.1784 17.262C16.2044 17.2555 16.25 17.3882 16.2998 17.533C16.331 17.6236 16.3638 17.719 16.3944 17.7881C16.4856 17.791 16.5682 17.8505 16.5941 17.9417C16.62 18.0339 16.5797 18.128 16.5029 18.1779C16.7736 19.0496 17.1816 20.0038 17.7048 20.6902C17.7885 20.406 17.7564 20.0843 17.7372 19.8924C17.7271 19.7913 17.7206 19.7262 17.7365 19.7216C17.752 19.7171 17.7798 19.7751 17.8232 19.8654C17.9198 20.0665 18.0935 20.4284 18.3797 20.6192C18.3797 20.6192 18.4056 20.6461 18.2837 20.7209L18.4728 21.3958L18.4709 21.3968C18.5084 21.5302 18.4296 21.6685 18.2943 21.7059C18.1589 21.7443 18.0188 21.6675 17.9823 21.5341L18.5141 23.4128L19.166 23.2285C19.166 23.2285 19.5183 24.0023 20.2469 24.4842C20.2393 24.5466 20.1077 24.6762 20.1077 24.6762L20.5455 26.2324L20.8661 26.2122L20.8287 26.0192C20.63 26.024 20.5647 25.8992 20.5647 25.8992C20.953 24.9098 20.9577 24.4221 20.9596 24.2193C20.9604 24.1412 20.9607 24.1053 20.9823 24.0992C21.0035 24.0934 21.0221 24.1234 21.0624 24.1885C21.1686 24.3597 21.4256 24.7741 22.2764 25.4183C22.2764 25.4183 22.2793 25.5623 22.1132 25.6592C22.1132 25.6592 22.9714 27.8413 22.9849 27.8855C22.9868 27.8807 20.5618 28.5565 20.5657 28.5556ZM13.8879 21.8C13.8783 21.8022 13.8685 21.8036 13.8586 21.805C13.8518 21.8059 13.8449 21.8069 13.8381 21.8082C13.8903 21.7967 13.942 21.7847 13.9944 21.7664C13.9589 21.7789 13.9234 21.7894 13.8879 21.8ZM13.8226 21.8115L13.8381 21.8082C13.8329 21.8091 13.8277 21.8102 13.8226 21.8115Z" fill="url(#paint2_linear_5256_93619)"/>
<defs>
<linearGradient id="paint0_linear_5256_93619" x1="20.7532" y1="38.9566" x2="39.5317" y2="17.5102" gradientUnits="userSpaceOnUse">
<stop stop-color="#A43F73"/>
<stop offset="1" stop-color="#D1103B"/>
</linearGradient>
<linearGradient id="paint1_linear_5256_93619" x1="20.7532" y1="38.9566" x2="39.5317" y2="17.5102" gradientUnits="userSpaceOnUse">
<stop stop-color="#A43F73"/>
<stop offset="1" stop-color="#D1103B"/>
</linearGradient>
<linearGradient id="paint2_linear_5256_93619" x1="20.7532" y1="38.9566" x2="39.5317" y2="17.5102" gradientUnits="userSpaceOnUse">
<stop stop-color="#A43F73"/>
<stop offset="1" stop-color="#D1103B"/>
</linearGradient>
</defs>
</svg>
