<svg width="44" height="44" viewBox="0 0 44 44" fill="none" xmlns="http://www.w3.org/2000/svg">
<rect width="44" height="44" rx="22" fill="white"/>
<path d="M33.7785 16.9597C33.8545 17.0457 33.9165 17.1477 33.9675 17.2648C34.0395 17.4428 33.9925 17.6518 33.8465 17.7808C33.8465 17.7808 33.8424 17.7844 33.8395 17.7872C33.8311 17.7952 33.8189 17.8068 33.8115 17.8098C33.0065 18.5228 32.9245 19.7958 33.6475 20.6258C33.7855 20.7858 33.7975 21.0208 33.6785 21.1888C33.6255 21.2668 33.5725 21.3258 33.5105 21.3798L24.3854 29.4778V16.0327L24.3524 15.8957C24.1764 15.1707 23.4834 14.6417 22.6974 14.6377C22.3364 14.6337 22.0314 14.3857 21.9264 14.0577L24.7764 11.5287C24.7764 11.5287 24.7794 11.5287 24.7814 11.5267C24.8404 11.4777 24.9044 11.4327 24.9854 11.3877C25.1704 11.2877 25.4014 11.3287 25.5414 11.4857C25.5494 11.4947 25.5654 11.5147 25.5714 11.5267C26.0354 12.0437 26.7704 12.2897 27.4774 12.1437C27.8214 12.0757 28.1454 11.9147 28.4104 11.6767L28.4304 11.6577C28.5884 11.5167 28.8194 11.5007 28.9924 11.6197C29.0744 11.6687 29.1434 11.7297 29.2014 11.7957L33.7785 16.9597Z" fill="url(#paint0_linear_5256_93611)"/>
<path fill-rule="evenodd" clip-rule="evenodd" d="M20.6901 13.8368C20.6921 14.9128 21.5921 15.8178 22.6941 15.8268C22.9051 15.8288 23.1471 15.9738 23.1981 16.1748V29.8079C23.1941 29.9039 23.1781 30.0009 23.1431 30.1089C23.1331 30.1379 23.1201 30.1689 23.1041 30.1969C23.0261 30.3329 22.8771 30.4209 22.7151 30.4249C22.0081 30.4389 21.3501 30.827 20.9971 31.443C20.8231 31.739 20.7311 32.083 20.7291 32.431C20.7291 32.622 20.6041 32.792 20.4241 32.857C20.3071 32.902 20.1881 32.919 20.0711 32.921L13.17 32.935C13.083 32.935 12.995 32.923 12.899 32.9C12.698 32.845 12.557 32.667 12.555 32.458C12.549 31.349 11.641 30.4469 10.532 30.4479C10.319 30.466 10.151 30.3349 10.084 30.1359C10.047 30.0209 10.032 29.9089 10.032 29.8079L10 16.4498L10.002 16.4468C10.002 16.3678 10.01 16.2898 10.032 16.2038C10.079 15.9968 10.264 15.8488 10.477 15.8488C10.487 15.8488 10.51 15.8508 10.524 15.8528C11.223 15.8508 11.893 15.4638 12.25 14.8348C12.426 14.5288 12.52 14.1828 12.518 13.8248L12.516 13.7958C12.516 13.5888 12.657 13.4038 12.858 13.3528C12.954 13.3248 13.042 13.3098 13.129 13.3098L20.0281 13.2998C20.1451 13.2998 20.2621 13.3178 20.3831 13.3588C20.5671 13.4248 20.6921 13.5948 20.6921 13.7918C20.6921 13.8018 20.6921 13.8248 20.6901 13.8368ZM18.6611 22.6969C19.1941 22.8019 19.7151 22.6359 19.9791 22.2179C20.3401 21.6519 20.0731 20.8309 19.3791 20.3879C18.6841 19.9469 17.8291 20.0539 17.4651 20.6219C17.2841 20.9059 17.2601 21.2549 17.3681 21.5829C17.1271 21.5009 16.8681 21.4559 16.598 21.4559C16.331 21.4559 16.073 21.5009 15.831 21.5829C15.938 21.2549 15.915 20.9059 15.733 20.6219C15.37 20.0539 14.514 19.9469 13.819 20.3879C13.125 20.8309 12.858 21.6519 13.221 22.2179C13.485 22.6359 14.006 22.8019 14.538 22.6969C14.366 23.0209 14.268 23.3899 14.268 23.7859C14.268 25.0749 15.313 26.1159 16.598 26.1159C17.8871 26.1159 18.9301 25.0749 18.9301 23.7859C18.9301 23.3899 18.8331 23.0209 18.6611 22.6969Z" fill="url(#paint1_linear_5256_93611)"/>
<defs>
<linearGradient id="paint0_linear_5256_93611" x1="34.0007" y1="11.3333" x2="21.6082" y2="38.1826" gradientUnits="userSpaceOnUse">
<stop stop-color="#55C0E9"/>
<stop offset="1" stop-color="#266DF0"/>
</linearGradient>
<linearGradient id="paint1_linear_5256_93611" x1="34.0007" y1="11.3333" x2="21.6082" y2="38.1826" gradientUnits="userSpaceOnUse">
<stop stop-color="#55C0E9"/>
<stop offset="1" stop-color="#266DF0"/>
</linearGradient>
</defs>
</svg>
